# xmcd
#
# Track frame offsets: 
#        150
#        9985
#        15457
#        23712
#        35540
#        44670
#        57257
#        64557
#        76227
#        90260
#        102415
#        123207
#        131865
#        146825
#        156925
#        171255
#
# Disc length: 2445 seconds
#
# Revision: 1
# Processed by: cddbd v1.5.1PL2 Copyright (c) Steve Scherf et al.
# Submitted via: ExactAudioCopy v0.95b4
#
DISCID=cb098b10
DTITLE=Nat King Cole Trio - It's Almost Like Being In Love
DYEAR=1989
DGENRE=Jazz
TTITLE0=It's Almost Like Being in Love
TTITLE1=It's Only a Paper Moon
TTITLE2=Jumpy Jitters
TTITLE3=Nothing Ever Happens
TTITLE4=Let's do Things
TTITLE5=Sentimental Blue
TTITLE6=What Cha Doing To My Heart
TTITLE7=Love Me Sooner
TTITLE8=I'm Through With Love
TTITLE9=Flo and Joe
TTITLE10=Go Bongo
TTITLE11=Yes Sir, That's My Baby
TTITLE12=Tiny's Exercise
TTITLE13=Gee Baby, Ain't I Good to You?
TTITLE14=Baby, I Need You
TTITLE15=Bop Kick
EXTD=YEAR: 1989
EXTT0=
EXTT1=
EXTT2=
EXTT3=
EXTT4=
EXTT5=
EXTT6=
EXTT7=
EXTT8=
EXTT9=
EXTT10=
EXTT11=
EXTT12=
EXTT13=
EXTT14=
EXTT15=
PLAYORDER=
